<svg xmlns="http://www.w3.org/2000/svg" width="133" height="99.54" viewBox="0 0 133 99.54"><defs><style>.a{fill:#fff;}</style></defs><g transform="translate(0 -0.5)"><path class="a" d="M53.978,128.611a8.17,8.17,0,0,0-10.5,4.819L29.655,170.678,15.838,133.43a8.172,8.172,0,0,0-15.089-.566,8.121,8.121,0,0,0-.234,6.251l9.18,24.748a1.949,1.949,0,0,0,3.654-1.356L4.168,137.759a4.27,4.27,0,0,1,2.523-5.5,4.207,4.207,0,0,1,5.495,2.522l15.644,42.174a1.949,1.949,0,0,0,3.654,0l15.645-42.174a4.275,4.275,0,0,1,8.016,2.974L37.752,184.641a8.735,8.735,0,0,1-8.1,5.952,8.735,8.735,0,0,1-8.1-5.952l-5.564-15A1.948,1.948,0,1,0,12.343,171l5.564,15a12.593,12.593,0,0,0,11.749,8.494A12.592,12.592,0,0,0,41.405,186L58.8,139.114a8.169,8.169,0,0,0-4.819-10.5Zm0,0" transform="translate(0 -94.45)"/><path class="a" d="M248.105,128.117a8.181,8.181,0,0,0-8.171,8.171v50.045a8.171,8.171,0,1,0,16.343,0V136.288A8.18,8.18,0,0,0,248.105,128.117Zm4.275,58.217a4.275,4.275,0,1,1-8.55,0V136.288a4.275,4.275,0,1,1,8.55,0Zm0,0" transform="translate(-177.607 -94.466)"/><path class="a" d="M371.926,145.488a1.948,1.948,0,0,0-3.731,1.124,20.507,20.507,0,0,1-19.635,26.4h-10a1.949,1.949,0,0,0-1.948,1.948v11.373a4.275,4.275,0,1,1-8.55,0V136.289a4.28,4.28,0,0,1,4.275-4.276h16.225a20.375,20.375,0,0,1,16.282,8.059,1.948,1.948,0,0,0,3.093-2.37,24.242,24.242,0,0,0-19.375-9.584H332.335a8.18,8.18,0,0,0-8.171,8.171v50.045a8.171,8.171,0,1,0,16.343,0v-9.424h8.054a24.4,24.4,0,0,0,23.366-31.423Zm0,0" transform="translate(-239.957 -94.467)"/><path class="a" d="M374.026,176.031a1.948,1.948,0,0,0-1.948,1.948v20a1.948,1.948,0,0,0,1.948,1.948h10a11.95,11.95,0,0,0,0-23.9Zm18.056,11.95a8.063,8.063,0,0,1-8.054,8.053h-8.054V179.928h8.054A8.063,8.063,0,0,1,392.082,187.981Zm0,0" transform="translate(-275.425 -129.934)"/><path class="a" d="M229.872,24.678a7.337,7.337,0,0,0-2.1-5.146,97.149,97.149,0,0,1,4.56-9A4.408,4.408,0,0,0,227.224,4.1a18.111,18.111,0,0,0-5.58,2.763.688.688,0,0,1-.892-.075c-1.054-1.06-2.558-2.591-4.471-4.546a5.786,5.786,0,0,0-8.275,0c-1.913,1.955-3.418,3.486-4.472,4.546a.687.687,0,0,1-.891.075A18.128,18.128,0,0,0,197.062,4.1a4.408,4.408,0,0,0-5.105,6.432,96.935,96.935,0,0,1,4.56,9,7.361,7.361,0,0,0,5.262,12.511h20.726a7.376,7.376,0,0,0,7.366-7.366ZM195.361,8a16.572,16.572,0,0,1,4.958,1.988,4.6,4.6,0,0,0,5.98-.456c1.061-1.067,2.572-2.6,4.493-4.567a1.89,1.89,0,0,1,2.7,0c1.92,1.962,3.432,3.5,4.492,4.567a4.6,4.6,0,0,0,5.981.456A16.561,16.561,0,0,1,228.926,8c.14.179-3.366,6.953-4.541,9.557-.6-.159-23.884-.159-24.484,0-1.159-2.565-4.682-9.378-4.541-9.557Zm27.146,20.147H201.78a3.469,3.469,0,0,1,0-6.939h20.726a3.469,3.469,0,0,1,0,6.939Zm0,0" transform="translate(-141.645)"/><path class="a" d="M379.939,46.487a1.945,1.945,0,0,0,2.643-.774c.516-.944-.854-2.687-.854-2.778a13.25,13.25,0,0,1,1.5-.914,10.393,10.393,0,0,0,4.14-4.14,13.242,13.242,0,0,1,.914-1.5,13.23,13.23,0,0,1,.913,1.5,10.389,10.389,0,0,0,4.141,4.14,13.239,13.239,0,0,1,1.5.914,13.238,13.238,0,0,1-1.5.913,10.408,10.408,0,0,0-4.14,4.141,13.23,13.23,0,0,1-.913,1.5c-.091,0-1.374-1.638-2.779-.854a1.954,1.954,0,0,0-.774,2.644,4.05,4.05,0,0,0,7.106,0l.779-1.424a6.515,6.515,0,0,1,2.592-2.593l1.425-.778a4.05,4.05,0,0,0,0-7.107l-1.425-.779a6.512,6.512,0,0,1-2.592-2.592l-.779-1.424a4.05,4.05,0,0,0-7.106,0l-.779,1.424a6.512,6.512,0,0,1-2.592,2.592l-1.425.779a4.049,4.049,0,0,0,0,7.106Zm0,0" transform="translate(-279.684 -23.673)"/><path class="a" d="M95.525,24.9l1.07.584a4.4,4.4,0,0,1,1.752,1.752l.585,1.07a3.525,3.525,0,0,0,6.187,0l.585-1.07a4.4,4.4,0,0,1,1.752-1.752l1.07-.584a3.527,3.527,0,0,0,0-6.188l-1.07-.584a4.4,4.4,0,0,1-1.752-1.753l-.585-1.068a3.525,3.525,0,0,0-6.187,0l-.585,1.068a4.4,4.4,0,0,1-1.752,1.753l-1.07.584a3.527,3.527,0,0,0,0,6.188Zm6.5-7.131,4.037,4.038-4.037,4.037-4.038-4.037Zm0,0" transform="translate(-69.353 -9.603)"/></g></svg>