<svg xmlns="http://www.w3.org/2000/svg" width="34.002" height="32.523" viewBox="0 0 34.002 32.523"><defs><style>.a{fill:#858585;}</style></defs><path class="a" d="M34,27.4c0,9.387-7.614,16.262-17,16.262A17,17,0,0,1,2.07,18.527a.324.324,0,0,1,.074-.119,4.984,4.984,0,0,1,.812-5.8,8.263,8.263,0,0,0,1.005,3.135c.429.8.886,1.375,1.211,1.3a12.9,12.9,0,0,1,3.7,0c.608-.782,2.087-2.956,4.437-2.956-1.315,1.315-5.085,5.914,1.479,5.914h1.479l-4.437,2.956s.5.975,0,1.479c-.561-.563-2.956.606-2.956,2.217s1.715,3.7,5.175,3.7,2.586-1.479,4.435-1.479A2.146,2.146,0,0,1,20.7,30.354c-2.544,0-4.391,2.956-7.391,2.956a6.31,6.31,0,0,0,4.435,1.479,8.866,8.866,0,0,0,7.126-14.147,8.925,8.925,0,0,1,3.549,6.341A13.243,13.243,0,0,0,28.83,23.7c0-4.45-1.891-10.335-5.175-12.566C28.386,12.554,34,17.142,34,25.919Z" transform="translate(0 -11.136)"/></svg>