<svg xmlns="http://www.w3.org/2000/svg" width="34.002" height="34" viewBox="0 0 34.002 34"><defs><style>.a{fill:#858585;}</style></defs><g transform="translate(0 -0.019)"><path class="a" d="M61.818,5.942A17,17,0,0,1,89.853,9.3c-3.857,0-9.895,0-13.165,0-2.372,0-3.9-.053-5.562.82a7.841,7.841,0,0,0-3.934,5.164Z" transform="translate(-57.712 0)"/><path class="a" d="M170.842,176.553a5.651,5.651,0,1,0,5.651-5.653A5.658,5.658,0,0,0,170.842,176.553Z" transform="translate(-159.496 -159.532)"/><path class="a" d="M19.188,132.926a7.614,7.614,0,0,1-8.915-3.613c-1.551-2.678-5.653-9.82-7.515-13.07a17.023,17.023,0,0,0,10.947,25.965Z" transform="translate(0 -108.506)"/><path class="a" d="M246.269,170.838a7.74,7.74,0,0,1,1.428,9.519c-1.347,2.325-5.651,9.587-7.736,13.1a17.013,17.013,0,0,0,17.088-22.622Z" transform="translate(-224.025 -159.473)"/></g></svg>