<svg xmlns="http://www.w3.org/2000/svg" width="33.669" height="33.669" viewBox="0 0 33.669 33.669"><defs><style>.a{fill:#858585;}</style></defs><path class="a" d="M28.738,4.931A16.835,16.835,0,0,0,4.931,28.738a16.841,16.841,0,0,0,20.614,2.5,1.315,1.315,0,0,0-1.363-2.25,14.11,14.11,0,0,1-3.306,1.461l-.228-1.121a1.315,1.315,0,1,0-2.578.523l.225,1.107a14.27,14.27,0,0,1-1.461.075q-.72,0-1.423-.071l.209-1.1a1.315,1.315,0,0,0-2.584-.493l-.207,1.086a14.119,14.119,0,0,1-2.821-1.176l.606-.9a1.315,1.315,0,0,0-2.185-1.464l-.6.893a14.332,14.332,0,0,1-1.914-1.9l.874-.594a1.315,1.315,0,1,0-1.478-2.176l-.886.6a14.125,14.125,0,0,1-1.2-2.819l1.04-.211a1.315,1.315,0,1,0-.523-2.578l-1.037.21a14.292,14.292,0,0,1-.08-1.512q0-.681.063-1.346l1.039.2A1.315,1.315,0,0,0,4.226,13.1l-1.042-.2a14.12,14.12,0,0,1,1.153-2.815l.883.591A1.315,1.315,0,1,0,6.684,8.495L5.8,7.9a14.329,14.329,0,0,1,1.96-1.986l.6.889a1.315,1.315,0,0,0,2.176-1.478l-.612-.9a14.127,14.127,0,0,1,2.743-1.173l.22,1.083a1.315,1.315,0,1,0,2.578-.523l-.222-1.094a14.293,14.293,0,0,1,1.59-.088q.654,0,1.294.058L17.917,3.8a1.315,1.315,0,1,0,2.584.493l.214-1.122a14.116,14.116,0,0,1,2.85,1.159l-.641.957A1.315,1.315,0,1,0,25.109,6.75l.645-.962a14.332,14.332,0,0,1,2.011,1.985l-.889.6a1.315,1.315,0,1,0,1.478,2.176l.9-.61a14.124,14.124,0,0,1,1.179,2.777l-1.164.236a1.315,1.315,0,1,0,.523,2.578l1.165-.237a14.31,14.31,0,0,1,.083,1.538q0,.689-.067,1.371L29.8,17.983a1.315,1.315,0,1,0-.493,2.584l1.16.221a14.223,14.223,0,0,1-1.185,2.85l-.968-.649a1.315,1.315,0,1,0-1.464,2.185l1.967,1.318a1.534,1.534,0,0,0,2-.312A16.793,16.793,0,0,0,28.738,4.931Z"/><path class="a" d="M154.505,144.17l-7.694,4.34a1.315,1.315,0,0,0-.5.509l-4.143,7.5a1.315,1.315,0,0,0,1.743,1.81l7.363-3.713c.469-.237.74-.373.925-.771l4.123-7.919a1.315,1.315,0,0,0-1.813-1.753Zm-4.467,8.119-3.511,1.771,1.9-3.442,3.511-1.98Z" transform="translate(-132.662 -134.531)"/></svg>