<svg xmlns="http://www.w3.org/2000/svg" width="95.248" height="95.081" viewBox="0 0 95.248 95.081"><defs><style>.a{fill:#fff;}</style></defs><g transform="translate(0 -0.448)"><g transform="translate(0 0.448)"><path class="a" d="M85.93,18.917h-3.7a12.315,12.315,0,0,0-5.7-17.386A12.179,12.179,0,0,0,63.254,3.666L55.44,10.748a9.307,9.307,0,0,0-15.64.012L31.973,3.666A12.328,12.328,0,0,0,11.367,12.8,12.249,12.249,0,0,0,13,18.917H9.318A9.328,9.328,0,0,0,0,28.234V40.658a3.106,3.106,0,0,0,3.106,3.106H6.212V86.211a9.328,9.328,0,0,0,9.318,9.318H79.718a9.328,9.328,0,0,0,9.318-9.318V43.764h3.106a3.106,3.106,0,0,0,3.106-3.106V28.234A9.329,9.329,0,0,0,85.93,18.917Zm-47.624,70.4H15.529a3.11,3.11,0,0,1-3.106-3.106V43.764H38.306V89.317Zm0-51.765H6.212V28.234a3.11,3.11,0,0,1,3.106-3.106H38.306ZM23.695,18.916h0A6.123,6.123,0,0,1,17.579,12.8,5.967,5.967,0,0,1,21.216,7.21a6.232,6.232,0,0,1,2.53-.55A6,6,0,0,1,27.8,8.269L39.55,18.917H23.695ZM47.624,12.7a3.109,3.109,0,0,1,3.019,2.39l-3.03,2.746L44.6,15.11A3.109,3.109,0,0,1,47.624,12.7ZM50.73,89.317H44.518V43.764H50.73Zm0-51.765H44.518V25.128H50.73ZM67.425,8.27A6.116,6.116,0,0,1,77.647,12.8a6.123,6.123,0,0,1-6.116,6.116H55.676Zm15.4,77.942a3.11,3.11,0,0,1-3.106,3.106H56.942V43.764H82.824Zm6.212-48.659H56.942V25.128H85.93a3.11,3.11,0,0,1,3.106,3.106Z" transform="translate(0 -0.448)"/></g></g></svg>