<svg xmlns="http://www.w3.org/2000/svg" width="16.768" height="24.252" viewBox="0 0 16.768 24.252"><defs><style>.a{fill:#c4a747;}</style></defs><g transform="translate(-79)"><g transform="translate(79)"><path class="a" d="M94.82,16.679a.947.947,0,0,0,.947-.947V3.789A3.794,3.794,0,0,0,91.978,0H82.789A3.794,3.794,0,0,0,79,3.789V20.462a3.794,3.794,0,0,0,3.789,3.789h9.189a3.794,3.794,0,0,0,3.789-3.789.947.947,0,0,0-1.895,0,1.9,1.9,0,0,1-1.895,1.895H82.789a1.9,1.9,0,0,1-1.895-1.895V3.789a1.9,1.9,0,0,1,1.895-1.895h9.189a1.9,1.9,0,0,1,1.895,1.895V15.731A.947.947,0,0,0,94.82,16.679Z" transform="translate(-79)"/><circle class="a" cx="0.947" cy="0.947" r="0.947" transform="translate(7.437 19)"/><path class="a" d="M219.789,72.069a.947.947,0,0,0-.947-.947h-1.895a.947.947,0,1,0,0,1.895h1.895A.947.947,0,0,0,219.789,72.069Z" transform="translate(-209.511 -67.753)"/></g></g></svg>