<svg xmlns="http://www.w3.org/2000/svg" width="123.635" height="123.635" viewBox="0 0 123.635 123.635"><defs><style>.a{fill:#fff;}</style></defs><g transform="translate(-10 -10)"><path class="a" d="M178.09,138.3a39.663,39.663,0,0,0-79.326,0,39.255,39.255,0,0,0,3.609,16.483,1.5,1.5,0,0,0,.166.354A39.675,39.675,0,0,0,178.09,138.3Zm-39.663-36.554a36.542,36.542,0,0,1,34.082,49.991,9.28,9.28,0,0,0-5.717-2.442,1.707,1.707,0,0,0-1.454.8,5.141,5.141,0,0,1-8.113-.2,1.517,1.517,0,0,0-1.25-.611,9.135,9.135,0,0,0-4.306,1.187,10.291,10.291,0,0,0-7.008-3.372,1.744,1.744,0,0,0-1.508.829,6.089,6.089,0,0,1-9.607-.234,1.523,1.523,0,0,0-1.25-.611,10.311,10.311,0,0,0-7.38,3.415,9.219,9.219,0,0,0-4.027-1.2,1.719,1.719,0,0,0-1.454.8,5.141,5.141,0,0,1-8.113-.2,1.516,1.516,0,0,0-1.25-.611,9.217,9.217,0,0,0-5.807,2.252,36.539,36.539,0,0,1,34.162-49.787Zm-32.853,52.738a6.212,6.212,0,0,1,3.874-2.13,8.159,8.159,0,0,0,11.983.035,6.176,6.176,0,0,1,1.8.617,10.181,10.181,0,0,0-1,4.4v13.673A36.844,36.844,0,0,1,105.573,154.479ZM125.242,172.4v-15a7.368,7.368,0,0,1,6.419-7.26,9.106,9.106,0,0,0,13.526.036,7.326,7.326,0,0,1,6.154,7.224v15.1A36.722,36.722,0,0,1,125.242,172.4Zm29.115-1.189V157.405a10.272,10.272,0,0,0-1-4.425,6.122,6.122,0,0,1,1.992-.632,8.159,8.159,0,0,0,11.983.037,6.25,6.25,0,0,1,3.833,2.324,36.848,36.848,0,0,1-16.809,16.5Z" transform="translate(-66.458 -66.43)"/><path class="a" d="M238.318,19.679a1.508,1.508,0,0,0,1.066-2.574l-6.663-6.663a1.508,1.508,0,0,0-2.132,0l-6.663,6.663a1.508,1.508,0,1,0,2.132,2.132l3.854-3.854v12.38a1.508,1.508,0,1,0,3.016,0V15.042c0-.046,0-.091-.007-.136l4.332,4.332a1.5,1.5,0,0,0,1.066.442Z" transform="translate(-159.837)"/><path class="a" d="M223.925,435.346a1.508,1.508,0,0,0,0,2.132l6.663,6.663a1.508,1.508,0,0,0,2.132,0l6.663-6.663a1.508,1.508,0,1,0-2.132-2.132L233.4,439.2V426.82a1.508,1.508,0,1,0-3.015,0v12.722c0,.046,0,.091.007.136l-4.332-4.332a1.508,1.508,0,0,0-2.132,0Z" transform="translate(-159.837 -310.947)"/><path class="a" d="M18.171,239.826a1.508,1.508,0,0,0,1.066-2.574L15.384,233.4h12.38a1.508,1.508,0,0,0,0-3.016H15.042c-.046,0-.091,0-.136.007l4.332-4.332a1.508,1.508,0,1,0-2.132-2.132l-6.663,6.664a1.508,1.508,0,0,0,0,2.132l6.664,6.664a1.5,1.5,0,0,0,1.066.442Z" transform="translate(0 -159.837)"/><path class="a" d="M437.478,223.925a1.508,1.508,0,1,0-2.132,2.132l3.854,3.854H426.82a1.508,1.508,0,1,0,0,3.016h12.722c.046,0,.091,0,.136-.007l-4.332,4.332a1.508,1.508,0,1,0,2.132,2.132l6.664-6.664a1.508,1.508,0,0,0,0-2.132Z" transform="translate(-310.947 -159.837)"/><path class="a" d="M81.8,92.731a1.508,1.508,0,0,0,1.508-1.508v-5.45l8.754,8.754a1.508,1.508,0,1,0,2.132-2.132l-9-9c-.035-.035-.075-.061-.112-.092h6.137a1.508,1.508,0,0,0,0-3.016H81.8A1.508,1.508,0,0,0,80.291,81.8v9.423A1.508,1.508,0,0,0,81.8,92.731Z" transform="translate(-52.627 -52.627)"/><path class="a" d="M376.532,386.471a1.508,1.508,0,0,0,1.508,1.508h9.423a1.508,1.508,0,0,0,1.508-1.508v-9.423a1.508,1.508,0,0,0-3.016,0V382.5l-8.754-8.755a1.508,1.508,0,1,0-2.132,2.132l9,9c.035.035.075.061.112.092H378.04a1.508,1.508,0,0,0-1.508,1.507Z" transform="translate(-272.999 -272.007)"/><path class="a" d="M387.978,91.225V81.8a1.508,1.508,0,0,0-1.508-1.508h-9.423a1.508,1.508,0,0,0,0,3.016H382.5l-8.755,8.754a1.508,1.508,0,1,0,2.132,2.132l9-9c.035-.035.061-.075.091-.112v6.137a1.508,1.508,0,1,0,3.016,0Z" transform="translate(-272.007 -52.629)"/><path class="a" d="M94.527,375.07a1.508,1.508,0,0,0-2.132,0l-9,9c-.035.035-.061.075-.091.112v-6.138a1.508,1.508,0,0,0-3.016,0v9.423a1.508,1.508,0,0,0,1.508,1.508h9.423a1.508,1.508,0,1,0,0-3.015h-5.45l8.754-8.754A1.508,1.508,0,0,0,94.527,375.07Z" transform="translate(-52.628 -273)"/><path class="a" d="M228.2,224.044a9.36,9.36,0,0,0,9.348-9.348v-3.92a9.349,9.349,0,0,0-18.7,0v3.92a9.36,9.36,0,0,0,9.35,9.348Zm-6.333-13.27a6.334,6.334,0,0,1,12.667,0v3.92a6.334,6.334,0,1,1-12.667,0Z" transform="translate(-156.37 -143.323)"/><path class="a" d="M322.392,241.536a8.381,8.381,0,0,0,8.371-8.372v-3.432a8.371,8.371,0,1,0-16.743,0v3.432a8.381,8.381,0,0,0,8.371,8.372Zm-5.356-11.8a5.356,5.356,0,0,1,10.712,0v3.432a5.362,5.362,0,0,1-5.356,5.356h0a5.362,5.362,0,0,1-5.356-5.356Z" transform="translate(-227.623 -158.247)"/><path class="a" d="M139.724,241.536a8.381,8.381,0,0,0,8.371-8.372v-3.432a8.371,8.371,0,0,0-16.743,0v3.432a8.381,8.381,0,0,0,8.371,8.372Zm-5.356-11.8a5.356,5.356,0,0,1,10.712,0v3.432a5.362,5.362,0,0,1-5.356,5.356h0a5.362,5.362,0,0,1-5.356-5.356Z" transform="translate(-90.858 -158.247)"/></g></svg>