<svg xmlns="http://www.w3.org/2000/svg" width="92.39" height="92.39" viewBox="0 0 92.39 92.39"><defs><style>.a{fill:#fff;}</style></defs><path class="a" d="M128,164.754a9.348,9.348,0,0,0,9.335,9.335,37.092,37.092,0,0,0,36.919-36.959,9.334,9.334,0,1,0-9.141,9.368,29.589,29.589,0,0,1-18.448,18.448A9.333,9.333,0,1,0,128,164.754Z" transform="translate(-104.872 -104.736)"/><path class="a" d="M46.195,0a3.794,3.794,0,0,0,0,7.589A38.606,38.606,0,1,1,7.589,46.195a3.794,3.794,0,0,0-7.589,0A46.195,46.195,0,1,0,46.195,0Z" transform="translate(0)"/><path class="a" d="M3.794,26.862a3.794,3.794,0,0,0,3.794-3.794A15.5,15.5,0,0,1,23.067,7.589a3.794,3.794,0,0,0,0-7.589A23.093,23.093,0,0,0,0,23.067a3.794,3.794,0,0,0,3.794,3.794Z" transform="translate(0 0)"/><path class="a" d="M88.038,78.461a3.794,3.794,0,0,0-3.794-3.794,9.587,9.587,0,0,0-9.576,9.576,3.794,3.794,0,0,0,7.589,0,1.99,1.99,0,0,1,1.988-1.988,3.794,3.794,0,0,0,3.794-3.794Z" transform="translate(-61.176 -61.176)"/><circle class="a" cx="3.855" cy="3.855" r="3.855" transform="translate(24.995 24.995)"/></svg>