<svg xmlns="http://www.w3.org/2000/svg" width="34.035" height="34.035" viewBox="0 0 34.035 34.035"><defs><style>.a{fill:#858585;}</style></defs><path class="a" d="M17.018,0A17.018,17.018,0,1,0,34.035,17.018,17.02,17.02,0,0,0,17.018,0Zm7.77,13.269q.011.251.011.5A11.038,11.038,0,0,1,13.685,24.887h0A11.056,11.056,0,0,1,7.7,23.132a7.944,7.944,0,0,0,.932.054,7.838,7.838,0,0,0,4.851-1.672A3.91,3.91,0,0,1,9.832,18.8a3.893,3.893,0,0,0,1.764-.067,3.907,3.907,0,0,1-3.134-3.829c0-.018,0-.033,0-.05a3.879,3.879,0,0,0,1.769.488,3.909,3.909,0,0,1-1.209-5.215,11.09,11.09,0,0,0,8.051,4.081,3.908,3.908,0,0,1,6.656-3.562,7.835,7.835,0,0,0,2.48-.948,3.921,3.921,0,0,1-1.718,2.16,7.79,7.79,0,0,0,2.243-.615,7.938,7.938,0,0,1-1.948,2.023Zm0,0"/></svg>