<svg xmlns="http://www.w3.org/2000/svg" width="26.053" height="26.002" viewBox="0 0 26.053 26.002"><defs><style>.a{fill:#17d84b;}</style></defs><g transform="translate(0 -0.499)"><g transform="translate(0 0.499)"><path class="a" d="M22.245,4.307A12.916,12.916,0,0,0,13.052.5H13A13,13,0,0,0,3.808,22.693,12.916,12.916,0,0,0,13,26.5h.051a13.01,13.01,0,0,0,6.336-1.646,1.016,1.016,0,0,0-.991-1.773q-.423.236-.865.434a11.684,11.684,0,0,0,.615-1.087,19.8,19.8,0,0,0,1.842-7.913h3.986a10.918,10.918,0,0,1-1.645,4.84,1.016,1.016,0,1,0,1.717,1.086,13.005,13.005,0,0,0-1.8-16.135Zm-13.8-.786a11.722,11.722,0,0,0-.592,1.05,14.49,14.49,0,0,0-.59,1.355c-.627-.121-1.22-.261-1.768-.42A11.01,11.01,0,0,1,8.447,3.521Zm.221,4.686c1.058.134,2.172.219,3.317.251v4.026H8.046A20.49,20.49,0,0,1,8.668,8.208ZM4.043,7.175a19.8,19.8,0,0,0,2.613.7,22.759,22.759,0,0,0-.644,4.6H2.078A10.9,10.9,0,0,1,4.043,7.175ZM2.078,14.516H6.013a22.791,22.791,0,0,0,.632,4.558,19.774,19.774,0,0,0-2.63.711A10.9,10.9,0,0,1,2.078,14.516Zm3.376,6.938c.556-.164,1.157-.308,1.792-.431a14.52,14.52,0,0,0,.61,1.406,11.741,11.741,0,0,0,.592,1.05A11.012,11.012,0,0,1,5.454,21.454Zm6.531,2.757a5.858,5.858,0,0,1-2.313-2.69q-.195-.389-.368-.81c.86-.1,1.759-.161,2.681-.188Zm0-5.719c-1.147.032-2.266.118-3.33.254a20.529,20.529,0,0,1-.61-4.229h3.939v3.975Zm0-12.065c-.911-.027-1.8-.091-2.66-.188q.164-.393.346-.758a5.857,5.857,0,0,1,2.313-2.69V6.426Zm2.031-3.636a5.858,5.858,0,0,1,2.313,2.69q.183.365.346.759c-.856.1-1.748.16-2.66.188ZM16.33,21.521a5.858,5.858,0,0,1-2.313,2.69V20.523c.918.027,1.814.09,2.681.188Q16.525,21.131,16.33,21.521Zm1.017-2.777c-1.072-.137-2.186-.221-3.33-.253V14.516h3.939A20.529,20.529,0,0,1,17.347,18.744Zm-3.33-6.259V8.458c1.146-.032,2.26-.116,3.318-.25a20.484,20.484,0,0,1,.622,4.276H14.017Zm4.13-7.913a11.709,11.709,0,0,0-.612-1.082A11.008,11.008,0,0,1,20.544,5.5c-.559.163-1.165.308-1.807.431A14.435,14.435,0,0,0,18.147,4.571Zm1.842,7.913a22.763,22.763,0,0,0-.644-4.6A19.694,19.694,0,0,0,22,7.16a10.906,10.906,0,0,1,1.975,5.324H19.989Z" transform="translate(0 -0.499)"/></g></g></svg>