<svg xmlns="http://www.w3.org/2000/svg" width="96.764" height="26.237" viewBox="0 0 96.764 26.237"><defs><style>.a{fill:#a6a6a6;}</style></defs><g transform="translate(-26.4 -41.5)"><g transform="translate(46.293 41.5)"><path class="a" d="M237.981,78.992h-1.919V70.534h-1.488a7.865,7.865,0,0,0-.979.039h-.352a5.424,5.424,0,0,1-3.955-1.723,5.241,5.241,0,1,1,8.811-4.738c.039.117.039.274.078.431l.078.431h-2.232l-.039-.157a2.918,2.918,0,0,0-2-2.193,2.981,2.981,0,0,0-.822-.117,2.823,2.823,0,0,0-2,.862,2.873,2.873,0,0,0-.822,2.036,2.776,2.776,0,0,0,2.585,2.741c1.136.039,2.271.078,3.368.078h2.115v6.892l4.817-5.482,1.88,1.606-3.485,4.033c-.979,1.136-2,2.271-2.976,3.446a.859.859,0,0,1-.666.274Z" transform="translate(-168.904 -52.756)"/><path class="a" d="M236.635,79.061V70.6c-.9,0-1.8-.039-2.663,0a5.04,5.04,0,0,1-5.4-5.482,4.933,4.933,0,0,1,3.054-4.229,4.759,4.759,0,0,1,5.052.627,4.839,4.839,0,0,1,1.645,2.859l.117.587H236.6a2.969,2.969,0,0,0-2.115-2.31,3.006,3.006,0,1,0-1.1,5.874c1.606.078,3.25.078,4.856.078h.431V75.85c1.684-1.958,3.329-3.838,4.973-5.717.548.47,1.057.9,1.566,1.371-.862.979-1.684,1.919-2.506,2.859-1.292,1.488-2.585,2.937-3.838,4.425a.631.631,0,0,1-.509.235C237.81,79.061,237.262,79.061,236.635,79.061Z" transform="translate(-169.281 -53.02)"/><path class="a" d="M87.46,70.695a4.112,4.112,0,0,1-2.937-1.175,4.166,4.166,0,0,1-3.015,1.175,4.256,4.256,0,0,1-.7-.039,3.982,3.982,0,0,1-3.524-3.563c-.039-.235-.039-.509-.078-.862V60.2h2.467v6.148a2.044,2.044,0,0,0,.47,1.41,1.742,1.742,0,0,0,1.253.509,4.315,4.315,0,0,0,.7-.078,1.631,1.631,0,0,0,1.136-1.723V60.239h2.428v.431a2.586,2.586,0,0,0,.039.548l.039,1.88c0,1.1.039,2.193.039,3.289a3.945,3.945,0,0,0,.078.744,1.485,1.485,0,0,0,1.566,1.214h.157a1.606,1.606,0,0,0,1.684-1.488,4.257,4.257,0,0,0,.039-.7V60.239h2.389v2.193c.039,1.488.039,3.054-.039,4.582a3.776,3.776,0,0,1-3.172,3.642C88.165,70.656,87.773,70.695,87.46,70.695Z" transform="translate(-77.2 -52.877)"/><path class="a" d="M92,60.639c0,2.193.117,4.386-.039,6.54a3.65,3.65,0,0,1-3.015,3.485,4.141,4.141,0,0,1-3.916-1.057l-.078-.078a4.276,4.276,0,0,1-3.681,1.214,3.768,3.768,0,0,1-3.329-3.407,5.783,5.783,0,0,1-.039-.822V60.678h2.075v5.952a1.949,1.949,0,0,0,2.7,2,1.839,1.839,0,0,0,1.292-1.919v-6.07h2.036c0,.235.039.509.039.783.039,1.723.039,3.446.078,5.169a2.525,2.525,0,0,0,.117.783A1.939,1.939,0,0,0,90,67.061a4.338,4.338,0,0,0,.078-.744V60.6C90.666,60.639,91.332,60.639,92,60.639Z" transform="translate(-77.626 -53.121)"/><path class="a" d="M149.03,59.318H143.9V54.932h2.389v2h.9c.783,0,1.566,0,2.31-.039a2.878,2.878,0,0,0,2.467-2.859,2.791,2.791,0,0,0-2.506-2.7c-1.136-.039-2.31-.078-3.446-.078H143.9V41.5h2.389v7.284h1.762a14.78,14.78,0,0,1,1.84.078,5.283,5.283,0,0,1,4.5,5.521,5.367,5.367,0,0,1-5.286,4.973Z" transform="translate(-117.781 -41.5)"/><path class="a" d="M144.4,59.365V55.371h2V57.29a.144.144,0,0,0,.117.039c1.1,0,2.232,0,3.329-.078a3.019,3.019,0,0,0-.039-5.991c-1.645-.078-3.329-.039-4.973-.078H144.4V41.9h2v7.284h.431a31.979,31.979,0,0,1,3.368.078,5.13,5.13,0,0,1,4.347,5.326,5.187,5.187,0,0,1-5.208,4.777Z" transform="translate(-118.085 -41.743)"/><path class="a" d="M177.106,70.673a5.366,5.366,0,0,1-5.169-5.991,5.253,5.253,0,0,1,5.247-4.582,4.98,4.98,0,0,1,2.663.744,4.772,4.772,0,0,1,2.506,3.25,3.973,3.973,0,0,1,.078.979v5.561h-2.389v-.783a2.244,2.244,0,0,1-.274.157A6.355,6.355,0,0,1,177.106,70.673Zm.078-8.106h-.157a3.013,3.013,0,0,0-2.036,1.018,2.61,2.61,0,0,0-.666,1.958,2.886,2.886,0,0,0,2.819,2.663h.2a2.823,2.823,0,0,0-.157-5.639Z" transform="translate(-134.814 -52.816)"/><path class="a" d="M182.481,70.745h-2.036v-.94c-.235.117-.392.235-.548.313a4.97,4.97,0,0,1-5.247-.2,4.785,4.785,0,0,1-2.232-4.895,5.064,5.064,0,0,1,7.6-3.72A4.541,4.541,0,0,1,182.4,64.44a3.813,3.813,0,0,1,.078.94v5.13A.246.246,0,0,1,182.481,70.745Zm-2.036-5.169a3.081,3.081,0,0,0-3.172-2.9,3.037,3.037,0,0,0-2.859,3.172,3.112,3.112,0,0,0,3.25,2.859A3.046,3.046,0,0,0,180.444,65.576Z" transform="translate(-135.098 -53.123)"/><path class="a" d="M120.721,70.634a5.258,5.258,0,0,1-3.329-9.085,5.327,5.327,0,0,1,3.642-1.449,5.068,5.068,0,0,1,2.624.7,5.194,5.194,0,0,1,2.506,5.639l-.039.157h-5.012V64.173h2.428a2.762,2.762,0,0,0-2.585-1.566h-.235a2.837,2.837,0,0,0,.587,5.639h.2v2.31l-.157.039C121.073,70.595,120.878,70.634,120.721,70.634Z" transform="translate(-100.632 -52.816)"/><path class="a" d="M121.418,64.607h2.506a2.89,2.89,0,0,0-3.133-1.958,3.03,3.03,0,0,0,.548,6.031v1.958a4.982,4.982,0,0,1-4.66-2.506,5.079,5.079,0,1,1,9.4-1.488h-4.7C121.418,65.978,121.418,65.312,121.418,64.607Z" transform="translate(-100.82 -53.095)"/><path class="a" d="M200.413,70.695H200.3l-.2-.039V65.447c0-2.075,1.449-4.582,3.8-5.052a8.52,8.52,0,0,1,1.645-.2,4.736,4.736,0,0,1,3.368,1.253,5.06,5.06,0,0,1,1.723,3.72c.039,1.214.039,2.467,0,3.681v1.684l-.039.235h-2.389V65.565a2.8,2.8,0,0,0-2.78-2.937,3.024,3.024,0,0,0-1.488.392,2.6,2.6,0,0,0-1.371,2.467v5.326h-.979Z" transform="translate(-151.973 -52.877)"/><path class="a" d="M202.536,70.779h-1.88a.3.3,0,0,1-.157-.039V65.688c0-1.919,1.371-4.425,3.642-4.856a5.2,5.2,0,0,1,4.817,1.018,4.873,4.873,0,0,1,1.645,3.6c.039,1.723,0,3.485,0,5.208v.157h-2.036V65.805a3.005,3.005,0,0,0-4.542-2.7,2.859,2.859,0,0,0-1.488,2.663c-.039,1.566,0,3.133,0,4.7Z" transform="translate(-152.217 -53.157)"/></g><path class="a" d="M265.558,101.977a1.938,1.938,0,1,1,1.919-1.958A1.883,1.883,0,0,1,265.558,101.977Zm.039-3.054a1.128,1.128,0,0,0-1.136,1.1,1.116,1.116,0,0,0,2.232.039A1.129,1.129,0,0,0,265.6,98.922Z" transform="translate(-144.314 -34.436)"/><g transform="translate(26.4 41.657)"><path class="a" d="M26.4,50.75V42.6c0-.548.157-.7.7-.7H42.612c.548,0,.7.157.7.7V58.856c0,.548-.157.7-.7.7H27.066c-.509,0-.666-.157-.666-.666C26.4,56.193,26.4,53.491,26.4,50.75Zm8.341-7.44a7.421,7.421,0,1,0,7.44,7.44A7.429,7.429,0,0,0,34.741,43.31Z" transform="translate(-26.4 -41.9)"/><path class="a" d="M38.169,61.017a6.043,6.043,0,0,1-6.07-6.148,6.129,6.129,0,1,1,6.07,6.148ZM42.4,54.908a4.19,4.19,0,1,0-4.19,4.19A4.195,4.195,0,0,0,42.4,54.908Z" transform="translate(-29.867 -46.097)"/></g></g></svg>